<?xml version="1.0" encoding="iso-8859-1"?>
<!-- Generator: Adobe Illustrator 22.0.1, SVG Export Plug-In . SVG Version: 6.00 Build 0)  -->
<svg version="1.1" id="&#x5716;&#x5C64;_1" xmlns="http://www.w3.org/2000/svg" xmlns:xlink="http://www.w3.org/1999/xlink" x="0px"
	 y="0px" viewBox="0 0 737.008 113.386" style="enable-background:new 0 0 737.008 113.386;" xml:space="preserve">
<g>
	<g>
		<path style="fill:#222678;" d="M336.847,76.593c0,2.474,0.083,4.288,0.33,6.226h-9.113c0.247-1.938,0.33-3.629,0.33-6.226V55.811
			h-4.865c-2.598,0-3.299,0.041-6.226,0.289v-7.876c1.361,0.165,3.629,0.289,6.144,0.289h18.06c2.887,0,4.536-0.082,6.433-0.289
			V56.1c-1.856-0.206-3.464-0.289-6.433-0.289h-4.659V76.593z"/>
		<path style="fill:#222678;" d="M371.935,82.82c-0.248-1.319-0.742-3.01-2.021-6.433c-1.319-3.587-1.814-4.535-2.845-5.442
			c-0.866-0.784-1.897-1.113-3.216-1.113h-4.206v6.762c0,2.804,0.083,4.329,0.33,6.226h-8.865c0.248-1.897,0.33-3.134,0.33-6.185
			V54.451c0-2.557-0.082-4.083-0.33-6.062c1.815,0.083,3.34,0.124,6.144,0.124h10.721c6.68,0,10.556,3.463,10.556,9.401
			c0,2.928-0.825,5.237-2.433,6.763c-1.031,0.948-1.897,1.402-3.917,2.062c2.103,0.66,3.052,1.608,4.371,4.536
			c0.618,1.32,1.196,2.721,3.051,7.175c0.454,1.154,0.948,2.185,1.979,4.371H371.935z M366.08,62.78
			c2.433,0,3.917-1.484,3.917-3.835c0-2.308-1.319-3.504-3.876-3.504h-6.474v7.339H366.08z"/>
		<path style="fill:#222678;" d="M408.383,82.82c-0.33-1.979-0.577-3.051-0.99-4.454l-1.113-3.504h-11.752l-1.113,3.504
			c-0.536,1.649-0.824,2.928-1.031,4.454h-9.649c0.619-1.237,0.99-2.227,1.979-5.03l8.907-24.823
			c0.742-2.02,1.113-3.258,1.319-4.453h10.762c0.289,1.195,0.577,2.268,1.402,4.453l8.948,24.823
			c0.783,2.185,1.443,3.875,1.979,5.03H408.383z M400.343,55.564l-3.835,12.371h7.752L400.343,55.564z"/>
		<path style="fill:#222678;" d="M440.585,65.378c1.196,1.773,1.979,3.092,2.969,4.907c-0.165-1.897-0.248-3.794-0.248-6.103v-9.401
			c0-2.721-0.082-4.371-0.33-6.268h8.783c-0.248,1.855-0.33,3.587-0.33,6.268v21.895c0,2.516,0.123,4.413,0.33,6.144h-9.03
			c-0.742-1.567-1.69-3.092-3.093-5.237l-7.628-11.504c-1.113-1.649-1.814-2.887-2.969-5.072c0.206,1.855,0.289,4.123,0.289,6.143
			v9.236c0,2.845,0.082,4.66,0.33,6.433h-8.783c0.248-1.608,0.33-3.423,0.33-6.474V54.657c0-2.392-0.082-4.247-0.33-6.144h8.948
			c0.412,1.113,1.319,2.762,2.927,5.154L440.585,65.378z"/>
		<path style="fill:#222678;" d="M484.002,83.109c-1.732-0.206-3.381-0.289-6.391-0.289h-15.958c-2.721,0-4.247,0.041-6.144,0.123
			V75.81c0.99-0.99,2.02-2.062,3.752-4.206l12.04-14.432c0.289-0.33,0.412-0.494,1.278-1.484c-0.742,0.041-1.608,0.041-2.062,0.041
			h-7.422c-2.721,0-4.742,0.082-6.309,0.289v-7.793c2.226,0.206,3.876,0.289,6.309,0.289h13.978c2.309,0,3.464-0.041,6.185-0.124
			v6.886c-0.99,0.99-2.309,2.474-4.041,4.618l-11.71,14.143c-0.33,0.413-0.66,0.784-1.402,1.608
			c0.371-0.041,1.072-0.041,2.103-0.041h9.401c2.515,0,4.247-0.082,6.391-0.289V83.109z"/>
		<path style="fill:#222678;" d="M511.09,82.82c-0.33-1.979-0.577-3.051-0.99-4.454l-1.113-3.504h-11.752l-1.113,3.504
			c-0.536,1.649-0.824,2.928-1.031,4.454h-9.648c0.619-1.237,0.99-2.227,1.979-5.03l8.907-24.823
			c0.742-2.02,1.113-3.258,1.319-4.453h10.762c0.289,1.195,0.577,2.268,1.402,4.453l8.948,24.823
			c0.783,2.185,1.443,3.875,1.979,5.03H511.09z M503.049,55.564l-3.835,12.371h7.752L503.049,55.564z"/>
		<path style="fill:#222678;" d="M545.6,60.471c-0.784-3.752-2.969-5.608-6.515-5.608c-5.03,0-7.958,3.958-7.958,10.762
			c0,6.721,3.052,10.803,8.165,10.803c2.268,0,4.206-0.948,5.401-2.598c0.701-0.99,0.99-1.815,1.237-3.546l8.577,1.278
			c-0.784,3.504-1.69,5.526-3.422,7.546c-2.556,2.927-6.556,4.494-11.546,4.494c-5.03,0-9.278-1.567-12.205-4.535
			c-3.051-3.093-4.783-7.917-4.783-13.443c0-5.608,1.732-10.35,4.989-13.566c2.845-2.763,7.01-4.288,11.834-4.288
			c5.319,0,9.484,1.814,12.164,5.401c1.319,1.691,2.02,3.217,2.557,5.649L545.6,60.471z"/>
	</g>
	<g>
		<g>
			<path style="fill:#222678;" d="M353.43,109.511c-1.705,0-3.205-0.536-4.5-1.606c-0.13-0.117-0.254-0.229-0.371-0.335l1.535-1.853
				c0.964,0.893,2.005,1.383,3.123,1.465c0.106,0.011,0.201,0.018,0.282,0.018c1.165,0,1.853-0.371,2.065-1.112
				c0.035-0.13,0.053-0.271,0.053-0.424c0-0.529-0.282-0.953-0.847-1.27c-0.201-0.106-0.582-0.282-1.147-0.529l-1.8-0.759
				c-1.789-0.765-2.689-1.965-2.7-3.6c0-1.2,0.501-2.177,1.5-2.929c0.858-0.624,1.899-0.935,3.123-0.935
				c1.471,0,2.753,0.465,3.847,1.394c0.117,0.106,0.229,0.212,0.335,0.318l-1.341,1.676c-0.882-0.73-1.828-1.094-2.841-1.094
				c-0.977,0-1.595,0.3-1.853,0.9c-0.06,0.165-0.088,0.335-0.088,0.512c0,0.518,0.335,0.946,1.006,1.288
				c0.201,0.095,0.565,0.247,1.094,0.459l1.747,0.741c1.471,0.611,2.34,1.511,2.612,2.7c0.06,0.293,0.088,0.607,0.088,0.935
				c0,1.235-0.501,2.234-1.5,3C355.946,109.165,354.806,109.511,353.43,109.511z"/>
			<path style="fill:#222678;" d="M370.863,97.512c-0.671,0-1.14-0.258-1.412-0.776c-0.117-0.212-0.176-0.435-0.176-0.671
				c0-0.624,0.289-1.052,0.865-1.288c0.223-0.095,0.465-0.141,0.724-0.141c0.682,0,1.158,0.258,1.429,0.776
				c0.095,0.201,0.141,0.417,0.141,0.653c0,0.589-0.271,1.012-0.812,1.27C371.386,97.453,371.135,97.512,370.863,97.512z
				 M369.522,109.264V99.153h2.629v10.111H369.522z"/>
			<path style="fill:#222678;" d="M384.045,109.264V99.153h2.17l0.176,1.323h0.071c1.094-1.048,2.188-1.577,3.282-1.588
				c2.082,0.024,3.13,1.383,3.141,4.076v6.299h-2.665v-5.982c0-1.165-0.293-1.846-0.882-2.047c-0.165-0.046-0.346-0.071-0.547-0.071
				c-0.565,0-1.14,0.265-1.729,0.794c-0.117,0.106-0.247,0.223-0.388,0.353v6.952H384.045z"/>
			<path style="fill:#222678;" d="M408.96,109.511c-1.612,0-2.876-0.565-3.794-1.694c-0.765-0.953-1.147-2.153-1.147-3.6
				c0-1.8,0.624-3.2,1.87-4.2c0.942-0.752,2.04-1.129,3.3-1.129c1.094,0.011,2.076,0.388,2.947,1.129l-1.27,1.712
				c-0.529-0.448-1.048-0.671-1.553-0.671c-0.988,0-1.712,0.448-2.17,1.341c-0.271,0.518-0.406,1.123-0.406,1.817
				c0,1.271,0.395,2.177,1.182,2.717c0.399,0.271,0.84,0.406,1.323,0.406c0.682-0.011,1.341-0.282,1.976-0.812l1.041,1.765
				C411.342,109.105,410.242,109.511,408.96,109.511z"/>
			<path style="fill:#222678;" d="M427.594,109.511c-1.588,0-2.852-0.547-3.794-1.641c-0.823-0.964-1.235-2.181-1.235-3.653
				c0-1.729,0.565-3.112,1.694-4.147c0.882-0.787,1.888-1.182,3.017-1.182c1.683,0,2.887,0.688,3.617,2.065
				c0.412,0.787,0.618,1.718,0.618,2.788c0,0.529-0.042,0.929-0.124,1.2h-6.246c0.152,1.235,0.741,2.029,1.765,2.382
				c0.318,0.106,0.664,0.159,1.041,0.159c0.776-0.011,1.535-0.247,2.276-0.706l0.9,1.623
				C430.053,109.141,428.875,109.511,427.594,109.511z M425.106,103.194h4.129c0-1.306-0.505-2.04-1.517-2.206
				c-0.13-0.024-0.265-0.035-0.406-0.035c-0.812,0-1.429,0.37-1.853,1.112C425.282,102.393,425.165,102.771,425.106,103.194z"/>
			<path style="fill:#222678;" d="M455.897,109.264v-2.153h2.876v-8.452h-2.417v-1.641c1.235-0.236,2.27-0.611,3.106-1.129h1.959
				v11.222h2.523v2.153H455.897z"/>
			<path style="fill:#222678;" d="M475.025,107.994l1.394-1.588c0.505,0.54,1.129,0.847,1.87,0.918
				c0.095,0.011,0.176,0.018,0.247,0.018c1.365,0,2.248-0.876,2.647-2.629c0.117-0.554,0.188-1.176,0.212-1.87
				c-0.54,0.706-1.242,1.165-2.1,1.376c-0.236,0.06-0.452,0.088-0.653,0.088c-1.564,0-2.671-0.607-3.317-1.818
				c-0.342-0.659-0.512-1.454-0.512-2.382c0-1.542,0.536-2.735,1.606-3.582c0.752-0.589,1.623-0.882,2.612-0.882
				c1.506,0,2.693,0.624,3.564,1.87c0.823,1.176,1.235,2.764,1.235,4.764c0,2.905-0.752,4.976-2.259,6.211
				c-0.836,0.682-1.793,1.023-2.876,1.023C477.237,109.5,476.013,108.993,475.025,107.994z M479.154,102.418
				c0.858-0.011,1.595-0.487,2.206-1.429c-0.223-2.212-0.988-3.324-2.294-3.335c-0.73,0-1.253,0.364-1.57,1.094
				c-0.165,0.388-0.247,0.84-0.247,1.359c0,1.341,0.501,2.1,1.5,2.276C478.878,102.407,479.013,102.418,479.154,102.418z"/>
			<path style="fill:#222678;" d="M499.076,109.511c-1.493,0-2.671-0.435-3.529-1.306c-0.624-0.635-0.935-1.387-0.935-2.259
				c0.011-1.506,0.776-2.671,2.294-3.494v-0.088c-1.176-0.847-1.765-1.906-1.765-3.176s0.523-2.23,1.57-2.876
				c0.695-0.435,1.511-0.653,2.453-0.653c1.482,0,2.57,0.494,3.264,1.482c0.412,0.6,0.618,1.295,0.618,2.082
				c0,1.07-0.47,2.005-1.412,2.806c-0.106,0.095-0.205,0.176-0.3,0.247v0.088c1.482,0.823,2.23,2.018,2.241,3.582
				c0,1.154-0.505,2.071-1.518,2.753C501.246,109.24,500.251,109.511,499.076,109.511z M499.146,107.641
				c0.871,0,1.458-0.318,1.765-0.953c0.13-0.258,0.194-0.54,0.194-0.847c0-0.765-0.43-1.394-1.288-1.888
				c-0.353-0.212-0.911-0.47-1.676-0.776c-0.765,0.73-1.176,1.553-1.235,2.47c0,0.787,0.353,1.365,1.059,1.729
				C498.328,107.553,498.723,107.641,499.146,107.641z M499.923,101.624c0.635-0.682,0.953-1.429,0.953-2.241
				c0-0.823-0.311-1.387-0.935-1.694c-0.247-0.117-0.523-0.176-0.829-0.176c-0.671,0-1.147,0.276-1.429,0.829
				c-0.13,0.258-0.194,0.54-0.194,0.847c0,0.801,0.465,1.454,1.394,1.959C499.164,101.299,499.51,101.458,499.923,101.624z"/>
			<path style="fill:#222678;" d="M518.75,109.511c-1.493,0-2.671-0.435-3.529-1.306c-0.624-0.635-0.935-1.387-0.935-2.259
				c0.011-1.506,0.776-2.671,2.294-3.494v-0.088c-1.176-0.847-1.765-1.906-1.765-3.176s0.523-2.23,1.57-2.876
				c0.695-0.435,1.511-0.653,2.453-0.653c1.482,0,2.57,0.494,3.264,1.482c0.412,0.6,0.618,1.295,0.618,2.082
				c0,1.07-0.47,2.005-1.412,2.806c-0.106,0.095-0.205,0.176-0.3,0.247v0.088c1.482,0.823,2.23,2.018,2.241,3.582
				c0,1.154-0.505,2.071-1.518,2.753C520.921,109.24,519.926,109.511,518.75,109.511z M518.821,107.641
				c0.871,0,1.458-0.318,1.765-0.953c0.13-0.258,0.194-0.54,0.194-0.847c0-0.765-0.43-1.394-1.288-1.888
				c-0.353-0.212-0.911-0.47-1.676-0.776c-0.765,0.73-1.176,1.553-1.235,2.47c0,0.787,0.353,1.365,1.059,1.729
				C518.002,107.553,518.397,107.641,518.821,107.641z M519.597,101.624c0.635-0.682,0.953-1.429,0.953-2.241
				c0-0.823-0.311-1.387-0.935-1.694c-0.247-0.117-0.523-0.176-0.829-0.176c-0.671,0-1.147,0.276-1.429,0.829
				c-0.13,0.258-0.194,0.54-0.194,0.847c0,0.801,0.465,1.454,1.394,1.959C518.838,101.299,519.185,101.458,519.597,101.624z"/>
		</g>
	</g>
	<g>
		<linearGradient id="SVGID_1_" gradientUnits="userSpaceOnUse" x1="201.1008" y1="65.9928" x2="291.7345" y2="65.9928">
			<stop  offset="0.3358" style="stop-color:#222678"/>
			<stop  offset="1" style="stop-color:#275CAA"/>
		</linearGradient>
		<path style="fill:url(#SVGID_1_);" d="M231.232,109.828c1.573-32.054,28.059-57.559,60.503-57.559V22.157
			c-49.076,0-89.041,38.983-90.634,87.671H231.232z"/>
		<linearGradient id="SVGID_2_" gradientUnits="userSpaceOnUse" x1="182.501" y1="22.1574" x2="219.7005" y2="22.1574">
			<stop  offset="0" style="stop-color:#F5D129"/>
			<stop  offset="1" style="stop-color:#D67510"/>
		</linearGradient>
		<circle style="fill:url(#SVGID_2_);" cx="201.101" cy="22.157" r="18.6"/>
		
			<linearGradient id="SVGID_3_" gradientUnits="userSpaceOnUse" x1="-3941.5388" y1="90.7859" x2="-3891.8127" y2="90.7859" gradientTransform="matrix(-1 0 0 1 -3634.0803 0)">
			<stop  offset="0" style="stop-color:#F5D129"/>
			<stop  offset="1" style="stop-color:#D67510"/>
		</linearGradient>
		<path style="fill:url(#SVGID_3_);" d="M257.789,72.633l-0.056,0.015c11.615,5.02,21.292,14.799,25.993,27.849
			c1.112,3.086,1.895,6.212,2.362,9.332h21.371c0-2.397-1.035-5.723-1.799-7.843c-5.97-16.573-20.471-27.612-36.769-29.951
			C265.19,71.502,261.41,71.7,257.789,72.633z"/>
	</g>
</g>
</svg>
