<?xml version="1.0" encoding="utf-8"?>
<!-- Generator: Adobe Illustrator 22.0.1, SVG Export Plug-In . SVG Version: 6.00 Build 0)  -->
<svg version="1.1" id="圖層_1" xmlns="http://www.w3.org/2000/svg" xmlns:xlink="http://www.w3.org/1999/xlink" x="0px" y="0px"
	 viewBox="0 0 20 20" style="enable-background:new 0 0 20 20;" xml:space="preserve">
<style type="text/css">
	.st0{fill:none;}
</style>
<path class="st0" d="M10,1c5,0,9,4,9,9s-4,9-9,9s-9-4-9-9S5,1,10,1 M10,0C4.5,0,0,4.5,0,10s4.5,10,10,10s10-4.5,10-10S15.5,0,10,0
	L10,0z"/>
<path class="st0" d="M14.5,9.5h-4v-4C10.5,5.2,10.3,5,10,5S9.5,5.2,9.5,5.5v4h-4C5.2,9.5,5,9.7,5,10s0.2,0.5,0.5,0.5h4v4
	c0,0.3,0.2,0.5,0.5,0.5s0.5-0.2,0.5-0.5v-4h4c0.3,0,0.5-0.2,0.5-0.5S14.8,9.5,14.5,9.5z"/>
</svg>
